<svg width="68" height="68" viewBox="0 0 68 68" fill="none" xmlns="http://www.w3.org/2000/svg">
<path d="M10.13 24H7.76V17.3H10.13C12.24 17.3 13.29 18.53 13.29 20.65C13.29 22.77 12.24 24 10.13 24ZM9.99 18.07H8.63V23.23H9.99C11.51 23.23 12.39 22.56 12.39 20.65C12.39 18.74 11.51 18.07 9.99 18.07ZM16.5462 24.1C15.1762 24.1 14.2262 23.12 14.2262 21.58C14.2262 20.05 15.1662 19.06 16.4962 19.06C17.8662 19.06 18.6962 19.97 18.6962 21.39C18.6962 21.54 18.6762 21.69 18.6562 21.78H15.0662C15.1162 22.8 15.6862 23.38 16.5462 23.38C17.5162 23.38 17.9062 22.85 18.0962 22.43L18.6262 23.03C18.2662 23.61 17.5962 24.1 16.5462 24.1ZM16.4962 19.79C15.7162 19.79 15.1962 20.25 15.0862 21.15H17.9162C17.8262 20.26 17.3062 19.79 16.4962 19.79ZM21.6005 24.1C20.5905 24.1 19.6705 23.66 19.3405 22.76L19.9705 22.27C20.1405 22.82 20.6705 23.37 21.6305 23.37C22.2005 23.37 22.5805 23.15 22.5805 22.72C22.5805 22.28 22.1405 22.14 21.5705 22.01L20.9305 21.86C20.2405 21.7 19.4905 21.37 19.4905 20.48C19.4905 19.6 20.1705 19.06 21.2205 19.06C22.2405 19.06 22.9505 19.6 23.2205 20.24L22.5605 20.73C22.3205 20.16 21.8605 19.8 21.1705 19.8C20.6705 19.8 20.3105 20.02 20.3105 20.43C20.3105 20.86 20.6305 21.01 21.2905 21.17L21.9105 21.33C23.0005 21.59 23.3605 22.04 23.3605 22.71C23.3605 23.67 22.5405 24.1 21.6005 24.1ZM25.239 18.38H24.369V17.3H25.239V18.38ZM25.239 24H24.369V19.16H25.239V24ZM28.4367 22.52C28.0867 22.52 27.7667 22.45 27.4967 22.32C27.3767 22.48 27.2367 22.71 27.2367 22.92C27.2367 23.18 27.3767 23.31 27.8767 23.31H29.3367C30.2167 23.31 30.7667 23.66 30.7667 24.39C30.7667 25.31 29.8667 25.96 28.2367 25.96C26.9967 25.96 26.2167 25.55 26.2167 24.91C26.2167 24.46 26.6267 24.19 26.9967 24.04C26.6867 23.94 26.5267 23.71 26.5267 23.39C26.5267 23.01 26.8167 22.59 27.2867 22.21C26.8067 21.91 26.5267 21.4 26.5267 20.79C26.5267 19.78 27.2967 19.06 28.4367 19.06C28.7567 19.06 29.0467 19.12 29.2967 19.22L29.5967 18.06L30.4967 18.38L29.6067 19.38C30.0667 19.68 30.3467 20.19 30.3467 20.79C30.3467 21.8 29.5767 22.52 28.4367 22.52ZM28.4367 21.85C29.0467 21.85 29.5067 21.45 29.5067 20.79C29.5067 20.13 29.0467 19.73 28.4367 19.73C27.8367 19.73 27.3667 20.13 27.3667 20.79C27.3667 21.45 27.8367 21.85 28.4367 21.85ZM28.2367 25.27C29.3367 25.27 29.9567 24.99 29.9567 24.51C29.9567 24.2 29.7167 24.06 29.2267 24.06H27.2467C27.0867 24.2 26.9167 24.41 26.9167 24.64C26.9167 25.03 27.3667 25.27 28.2367 25.27ZM32.4363 24H31.5662V19.16H32.4363V20.45C32.6263 19.7 33.1463 19.06 34.0963 19.06C35.0463 19.06 35.6363 19.63 35.6363 20.66V24H34.7763V20.87C34.7763 20.24 34.5263 19.8 33.7063 19.8C32.7763 19.8 32.4363 20.45 32.4363 21.26V24Z" fill="#432D58"/>
<path d="M10.13 15H7.76V8.3H10.13C12.24 8.3 13.29 9.53 13.29 11.65C13.29 13.77 12.24 15 10.13 15ZM9.99 9.07H8.63V14.23H9.99C11.51 14.23 12.39 13.56 12.39 11.65C12.39 9.74 11.51 9.07 9.99 9.07ZM16.5462 15.1C15.1762 15.1 14.2262 14.12 14.2262 12.58C14.2262 11.05 15.1662 10.06 16.4962 10.06C17.8662 10.06 18.6962 10.97 18.6962 12.39C18.6962 12.54 18.6762 12.69 18.6562 12.78H15.0662C15.1162 13.8 15.6862 14.38 16.5462 14.38C17.5162 14.38 17.9062 13.85 18.0962 13.43L18.6262 14.03C18.2662 14.61 17.5962 15.1 16.5462 15.1ZM16.4962 10.79C15.7162 10.79 15.1962 11.25 15.0862 12.15H17.9162C17.8262 11.26 17.3062 10.79 16.4962 10.79ZM21.8241 15H20.7241L18.9741 10.16H19.9141L20.8741 13.03L21.2941 14.36L21.7041 13.03L22.6541 10.16H23.5841L21.8241 15Z" fill="#432D58"/>
<rect x="17.5" y="37.5" width="23" height="23" rx="11.5" fill="#432D58"/>
<rect x="17.5" y="37.5" width="23" height="23" rx="11.5" stroke="#432D58"/>
<g clip-path="url(#clip0_702_34)">
<rect x="7" y="37" width="24" height="24" rx="12" fill="url(#paint0_linear_702_34)"/>
<rect x="17.5" y="37.5" width="23" height="23" rx="11.5" stroke="#432D58"/>
</g>
<rect x="1" y="1" width="66" height="66" rx="9" stroke="#432D58" stroke-width="2"/>
<defs>
<linearGradient id="paint0_linear_702_34" x1="19" y1="37" x2="67.5" y2="84.5" gradientUnits="userSpaceOnUse">
<stop stop-color="white"/>
<stop offset="1" stop-color="white" stop-opacity="0"/>
</linearGradient>
<clipPath id="clip0_702_34">
<rect x="7" y="37" width="24" height="24" rx="12" fill="white"/>
</clipPath>
</defs>
</svg>
